<svg width="22" height="22" viewBox="0 0 22 22" fill="none" xmlns="http://www.w3.org/2000/svg">
<path d="M16.5811 17.0773C15.4013 18.1611 13.9314 18.8779 12.351 19.1403C10.7705 19.4026 9.14788 19.1991 7.68116 18.5546C6.21443 17.9101 4.96709 16.8525 4.09142 15.511C3.21575 14.1694 2.74964 12.6019 2.75 10.9998H4.125C4.1249 12.3845 4.54297 13.7371 5.32447 14.8802C6.10597 16.0234 7.21446 16.9039 8.5048 17.4065C9.79514 17.9091 11.2072 18.0103 12.556 17.6969C13.9048 17.3835 15.1276 16.6701 16.0641 15.65H14.0662C13.8839 15.65 13.709 15.5776 13.5801 15.4487C13.4512 15.3197 13.3787 15.1449 13.3787 14.9625C13.3787 14.7802 13.4512 14.6053 13.5801 14.4764C13.709 14.3475 13.8839 14.275 14.0662 14.275H17.2686C17.451 14.275 17.6258 14.3475 17.7548 14.4764C17.8837 14.6053 17.9561 14.7802 17.9561 14.9625V18.1622C17.9561 18.3445 17.8837 18.5194 17.7548 18.6483C17.6258 18.7772 17.451 18.8497 17.2686 18.8497C17.0863 18.8497 16.9114 18.7772 16.7825 18.6483C16.6536 18.5194 16.5811 18.3445 16.5811 18.1622V17.0759V17.0773ZM5.93588 6.35091H7.93375C8.11609 6.35091 8.29095 6.42335 8.41989 6.55228C8.54882 6.68121 8.62125 6.85608 8.62125 7.03841C8.62125 7.22075 8.54882 7.39562 8.41989 7.52455C8.29095 7.65348 8.11609 7.72591 7.93375 7.72591H4.73C4.54766 7.72591 4.3728 7.65348 4.24386 7.52455C4.11493 7.39562 4.0425 7.22075 4.0425 7.03841V3.83604C4.0425 3.6537 4.11493 3.47883 4.24386 3.3499C4.3728 3.22097 4.54766 3.14854 4.73 3.14854C4.91234 3.14854 5.0872 3.22097 5.21614 3.3499C5.34507 3.47883 5.4175 3.6537 5.4175 3.83604V4.92229C6.59719 3.83714 8.06744 3.11914 9.64857 2.85604C11.2297 2.59294 12.8532 2.79613 14.3208 3.44078C15.7883 4.08543 17.0362 5.14362 17.9121 6.48603C18.788 7.82843 19.2538 9.39691 19.2528 10.9998H17.8777C17.8779 9.61484 17.4597 8.26215 16.678 7.11888C15.8964 5.97562 14.7876 5.09508 13.4971 4.59261C12.2065 4.09014 10.7942 3.98917 9.4453 4.30291C8.09636 4.61665 6.87363 5.33049 5.93725 6.35091H5.93588Z" fill="#A6AFBD"/>
</svg>
